<svg width="45" height="44" viewBox="0 0 45 44" fill="none" xmlns="http://www.w3.org/2000/svg">
<path fill-rule="evenodd" clip-rule="evenodd" d="M6.5625 13.125H34.6875C35.7337 13.125 36.7144 13.4587 37.5244 14.0906C37.9331 14.4075 38.5219 14.3344 38.8406 13.9275C39.1594 13.5188 39.0862 12.93 38.6775 12.6112C38.4802 12.4574 38.2758 12.316 38.065 12.1875C39.972 11.0382 41.25 8.94688 41.25 6.5625C41.25 2.94375 38.3063 0 34.6875 0H6.5625C2.94375 0 0 2.94375 0 6.5625C0 8.94591 1.27697 11.0365 3.18272 12.1861C2.73024 12.4594 2.30763 12.7899 1.92375 13.1737C0.6825 14.415 0 16.0612 0 17.8125C0 20.1959 1.27697 22.2865 3.18272 23.4361C2.73024 23.7094 2.30763 24.0399 1.92375 24.4237C0.6825 25.665 0 27.3112 0 29.0625C0 32.6812 2.94375 35.625 6.5625 35.625H17.8125C18.33 35.625 18.75 35.205 18.75 34.6875C18.75 34.17 18.33 33.75 17.8125 33.75H6.5625C3.97687 33.75 1.875 31.6481 1.875 29.0625C1.875 27.8137 2.3625 26.6344 3.24937 25.7494C4.13625 24.8644 5.31375 24.375 6.5625 24.375H17.8125C18.33 24.375 18.75 23.955 18.75 23.4375C18.75 22.92 18.33 22.5 17.8125 22.5H6.5625C3.97687 22.5 1.875 20.3981 1.875 17.8125C1.875 16.5637 2.3625 15.3844 3.24937 14.4994C4.13625 13.6144 5.31375 13.125 6.5625 13.125ZM34.6875 11.25H6.5625C3.97688 11.25 1.875 9.14812 1.875 6.5625C1.875 3.97687 3.97688 1.875 6.5625 1.875H34.6875C37.2731 1.875 39.375 3.97687 39.375 6.5625C39.375 9.14812 37.2731 11.25 34.6875 11.25ZM33.75 43.125C33.6262 43.125 33.5025 43.1006 33.3862 43.0518C32.94 42.8624 22.5 38.3512 22.5 29.1299V21.2943C22.5 20.8912 22.7569 20.535 23.1375 20.4056L33.45 16.9237C33.645 16.8581 33.8569 16.8581 34.05 16.9237L44.3625 20.4056C44.7431 20.5331 45 20.8912 45 21.2943V29.1299C45 38.3512 34.56 42.8624 34.1137 43.0518C33.9975 43.1006 33.8737 43.125 33.75 43.125ZM24.375 21.9693V29.1299C24.375 36.2249 31.9781 40.3012 33.75 41.1543C35.52 40.2993 43.125 36.2062 43.125 29.1299V21.9693L33.75 18.8025L24.375 21.9693ZM32.8125 33.75C32.7956 33.75 32.7769 33.75 32.7619 33.7481C32.4938 33.7331 32.2481 33.6074 32.0813 33.3974L28.3313 28.7099C28.0088 28.305 28.0725 27.7162 28.4775 27.3918C28.8844 27.0731 29.4713 27.1368 29.7956 27.5381L32.8894 31.4062L38.7113 25.5862C39.0769 25.2206 39.6713 25.2206 40.0369 25.5862C40.4025 25.9518 40.4025 26.5462 40.0369 26.9118L33.4744 33.4743C33.3 33.6506 33.06 33.75 32.8125 33.75ZM8.4375 9.37494C6.88687 9.37494 5.625 8.11307 5.625 6.56244C5.625 5.01182 6.88687 3.74994 8.4375 3.74994C9.98812 3.74994 11.25 5.01182 11.25 6.56244C11.25 8.11307 9.98812 9.37494 8.4375 9.37494ZM8.4375 5.62494C7.92187 5.62494 7.5 6.04682 7.5 6.56244C7.5 7.07807 7.92187 7.49994 8.4375 7.49994C8.95312 7.49994 9.375 7.07807 9.375 6.56244C9.375 6.04682 8.95312 5.62494 8.4375 5.62494ZM15 6.56244C15 8.11307 16.2619 9.37494 17.8125 9.37494C19.3631 9.37494 20.625 8.11307 20.625 6.56244C20.625 5.01182 19.3631 3.74994 17.8125 3.74994C16.2619 3.74994 15 5.01182 15 6.56244ZM16.875 6.56244C16.875 6.04682 17.2969 5.62494 17.8125 5.62494C18.3281 5.62494 18.75 6.04682 18.75 6.56244C18.75 7.07807 18.3281 7.49994 17.8125 7.49994C17.2969 7.49994 16.875 7.07807 16.875 6.56244ZM5.625 17.8124C5.625 19.3631 6.88687 20.6249 8.4375 20.6249C9.98812 20.6249 11.25 19.3631 11.25 17.8124C11.25 16.2618 9.98812 14.9999 8.4375 14.9999C6.88687 14.9999 5.625 16.2618 5.625 17.8124ZM7.5 17.8124C7.5 17.2968 7.92187 16.8749 8.4375 16.8749C8.95312 16.8749 9.375 17.2968 9.375 17.8124C9.375 18.3281 8.95312 18.7499 8.4375 18.7499C7.92187 18.7499 7.5 18.3281 7.5 17.8124ZM17.8125 20.6249C16.2619 20.6249 15 19.3631 15 17.8124C15 16.2618 16.2619 14.9999 17.8125 14.9999C19.3631 14.9999 20.625 16.2618 20.625 17.8124C20.625 19.3631 19.3631 20.6249 17.8125 20.6249ZM17.8125 16.8749C17.2969 16.8749 16.875 17.2968 16.875 17.8124C16.875 18.3281 17.2969 18.7499 17.8125 18.7499C18.3281 18.7499 18.75 18.3281 18.75 17.8124C18.75 17.2968 18.3281 16.8749 17.8125 16.8749ZM8.4375 31.8749C6.88687 31.8749 5.625 30.6131 5.625 29.0624C5.625 27.5118 6.88687 26.2499 8.4375 26.2499C9.98812 26.2499 11.25 27.5118 11.25 29.0624C11.25 30.6131 9.98812 31.8749 8.4375 31.8749ZM8.4375 28.1249C7.92187 28.1249 7.5 28.5468 7.5 29.0624C7.5 29.5781 7.92187 29.9999 8.4375 29.9999C8.95312 29.9999 9.375 29.5781 9.375 29.0624C9.375 28.5468 8.95312 28.1249 8.4375 28.1249ZM15 29.0624C15 30.6131 16.2619 31.8749 17.8125 31.8749C19.3631 31.8749 20.625 30.6131 20.625 29.0624C20.625 27.5118 19.3631 26.2499 17.8125 26.2499C16.2619 26.2499 15 27.5118 15 29.0624ZM16.875 29.0624C16.875 28.5468 17.2969 28.1249 17.8125 28.1249C18.3281 28.1249 18.75 28.5468 18.75 29.0624C18.75 29.5781 18.3281 29.9999 17.8125 29.9999C17.2969 29.9999 16.875 29.5781 16.875 29.0624Z" fill="url(#paint0_linear)"/>
<defs>
<linearGradient id="paint0_linear" x1="56.0789" y1="48.7001" x2="-4.67319" y2="-6.14906" gradientUnits="userSpaceOnUse">
<stop stop-color="#610084"/>
<stop offset="1" stop-color="#237CBC"/>
</linearGradient>
</defs>
</svg>
