<svg width="14" height="23" viewBox="0 0 14 23" fill="none" xmlns="http://www.w3.org/2000/svg">
<path d="M13.2998 5.67823C13.6866 5.67823 14 5.37641 14 5.0044V0.673828C14 0.301643 13.6866 0 13.2998 0H8.0498C5.5961 0 3.59987 1.92111 3.59987 4.28249V8.66097H0.700173C0.313437 8.66097 0 8.96262 0 9.3348V13.6652C0 14.0374 0.313437 14.339 0.700173 14.339H3.59987V22.3262C3.59987 22.6984 3.91331 23 4.30005 23H8.79994C9.18667 23 9.50011 22.6984 9.50011 22.3262V14.339H12.3998C12.7337 14.339 13.021 14.1123 13.0865 13.7973L13.9863 9.46693C14.0275 9.269 13.9743 9.06369 13.8412 8.90752C13.7083 8.75152 13.5095 8.66097 13.2998 8.66097H9.50011V5.67823H13.2998ZM8.79994 10.0086H12.4458L11.8258 12.9914H8.79994C8.4132 12.9914 8.09976 13.293 8.09976 13.6652V21.6523H5.00022V13.6652C5.00022 13.293 4.68678 12.9914 4.30005 12.9914H1.40035V10.0086H4.30005C4.68678 10.0086 5.00022 9.70699 5.00022 9.3348V4.28249C5.00022 2.66425 6.36829 1.34766 8.0498 1.34766H12.5997V4.33057H8.79994C8.4132 4.33057 8.09976 4.63222 8.09976 5.0044V9.3348C8.09976 9.70699 8.4132 10.0086 8.79994 10.0086Z" fill="black"/>
</svg>
