<svg width="24" height="23" viewBox="0 0 24 23" fill="none" xmlns="http://www.w3.org/2000/svg">
<path d="M12.2821 5.37083C8.95195 5.37083 6.24268 8.0801 6.24268 11.4102C6.24268 14.7404 8.95195 17.4496 12.2821 17.4496C15.6122 17.4496 18.3215 14.7404 18.3215 11.4102C18.3215 8.0801 15.6122 5.37083 12.2821 5.37083ZM12.2821 16.1125C9.68929 16.1125 7.57981 14.003 7.57981 11.4102C7.57981 8.81745 9.68929 6.70797 12.2821 6.70797C14.875 6.70797 16.9843 8.81745 16.9843 11.4102C16.9843 14.003 14.875 16.1125 12.2821 16.1125Z" fill="black"/>
<path d="M21.3929 2.29942C19.9102 0.816559 17.9461 0 15.8627 0H8.70139C6.61803 0 4.65394 0.816559 3.17125 2.29942C1.68839 3.78211 0.871826 5.74621 0.871826 7.82957V14.9907C0.871826 17.0743 1.68839 19.0384 3.17125 20.5211C4.65394 22.0039 6.61803 22.8205 8.70139 22.8205H15.8627C17.9461 22.8205 19.9102 22.0039 21.3929 20.5211C22.8757 19.0384 23.6923 17.0743 23.6923 14.9907V7.82957C23.6923 5.74621 22.8757 3.78211 21.3929 2.29942ZM22.3552 14.9907C22.3552 18.5707 19.4425 21.4833 15.8627 21.4833H8.70139C5.12159 21.4833 2.20896 18.5707 2.20896 14.9907V7.82957C2.20896 4.24976 5.12159 1.33714 8.70139 1.33714H15.8627C19.4425 1.33714 22.3552 4.24976 22.3552 7.82957V14.9907Z" fill="black"/>
</svg>
