<svg width="26" height="33" viewBox="0 0 26 33" fill="none" xmlns="http://www.w3.org/2000/svg">
<path d="M23.5943 5.57037C21.1485 2.03058 17.2723 0 12.9603 0C8.64825 0 4.772 2.03058 2.32618 5.57037C-0.107617 9.09226 -0.66959 13.5511 0.819913 17.4904C1.21832 18.5662 1.85163 19.6113 2.69775 20.5907L12.1074 31.6434C12.3203 31.8935 12.6321 32.0377 12.9603 32.0377C13.2885 32.0377 13.6003 31.8936 13.8131 31.6434L23.2201 20.5937C24.07 19.6087 24.7025 18.5647 25.0976 17.4975C26.5901 13.5511 26.0281 9.09226 23.5943 5.57037ZM22.9999 16.713C22.6952 17.5363 22.1978 18.3503 21.5223 19.1333C21.5205 19.1352 21.5186 19.1371 21.5171 19.1393L12.9603 29.1898L4.39819 19.133C3.72308 18.3507 3.22568 17.5368 2.91801 16.7055C1.68618 13.4476 2.15367 9.76105 4.16892 6.84443C6.19048 3.91849 9.39501 2.24039 12.9603 2.24039C16.5255 2.24039 19.7296 3.91842 21.7512 6.84443C23.7669 9.76105 24.2347 13.4476 22.9999 16.713Z" fill="black"/>
<path d="M12.9603 6.64655C9.50145 6.64655 6.68713 9.46048 6.68713 12.9197C6.68713 16.3789 9.50107 19.1928 12.9603 19.1928C16.4195 19.1928 19.2334 16.3789 19.2334 12.9197C19.2334 9.46086 16.4191 6.64655 12.9603 6.64655ZM12.9603 16.9524C10.7367 16.9524 8.92752 15.1432 8.92752 12.9196C8.92752 10.696 10.7367 8.88687 12.9603 8.88687C15.1839 8.88687 16.993 10.696 16.993 12.9196C16.993 15.1432 15.1839 16.9524 12.9603 16.9524Z" fill="black"/>
</svg>
