<svg width="42" height="42" viewBox="0 0 42 42" fill="none" xmlns="http://www.w3.org/2000/svg">
<path fill-rule="evenodd" clip-rule="evenodd" d="M34.6789 0.360446C34.4482 0.129692 34.1352 0 33.8089 0C33.4826 0 33.1695 0.129692 32.9389 0.360446L28.0286 5.2706C26.6567 4.61705 24.9621 4.85667 23.8279 5.991L18.6074 11.2115C18.1269 11.692 18.1269 12.4711 18.6074 12.9516L29.0483 23.3925C29.5287 23.873 30.3079 23.8731 30.7884 23.3925L36.0089 18.172C37.1671 17.0139 37.3741 15.3135 36.7309 13.9697L41.6395 9.0611C42.1201 8.58056 42.1201 7.80151 41.6395 7.32097L34.6789 0.360446ZM34.2688 16.4319L29.9184 20.7823L21.2177 12.0815L25.568 7.73113C26.0477 7.25149 26.8284 7.25133 27.3082 7.73113L34.2688 14.6918C34.7497 15.1727 34.7497 15.9509 34.2688 16.4319ZM35.1389 12.0816L29.9184 6.8611L33.8089 2.97068L39.0294 8.19116L35.1389 12.0816ZM20.7608 0.363489C20.2821 -0.118691 19.503 -0.121563 19.0207 0.357337L15.9139 3.44213V2.95314C15.9139 2.27359 15.363 1.72267 14.6834 1.72267C14.0039 1.72267 13.453 2.27359 13.453 2.95314V6.48049C13.453 7.16003 14.0039 7.71096 14.6834 7.71096H18.1288C18.8083 7.71096 19.3592 7.16003 19.3592 6.48049C19.3592 5.80094 18.8083 5.25002 18.1288 5.25002H17.5858L20.7546 2.10362C21.2369 1.6248 21.2396 0.845751 20.7608 0.363489ZM23.8288 35.5745C24.3084 36.053 25.0875 36.0552 25.569 35.5727L28.7109 32.4241V32.9766C28.7109 33.6562 29.2618 34.2071 29.9414 34.2071C30.6209 34.2071 31.1718 33.6562 31.1718 32.9766V29.4493C31.1718 28.7697 30.6209 28.2188 29.9414 28.2188H26.414C25.7345 28.2188 25.1835 28.7697 25.1835 29.4493C25.1835 30.1288 25.7345 30.6797 26.414 30.6797H26.9749L23.827 33.8343C23.3469 34.3153 23.3478 35.0944 23.8288 35.5745ZM9.06102 41.6397C8.58056 42.1201 7.80118 42.12 7.32089 41.6397L0.360282 34.6791C-0.120176 34.1986 -0.120012 33.4192 0.360282 32.9389L5.29578 28.0035C4.64224 26.6316 4.88185 24.937 6.01618 23.8028L7.75631 22.0626C8.23677 21.5821 9.0159 21.5822 9.49636 22.0626L10.3665 22.9328L13.3869 19.9124C13.8675 19.4318 14.6465 19.4319 15.1271 19.9124C15.6069 20.3921 16.3875 20.3922 16.8673 19.9124L18.6074 18.1722C19.088 17.6917 19.8671 17.6917 20.3476 18.1722L23.8279 21.6525C24.3084 22.1329 24.3081 22.9124 23.8279 23.3926L22.0878 25.1328C21.6067 25.6137 21.607 26.3921 22.0878 26.8729C22.5682 27.3533 22.5681 28.1327 22.0878 28.613L19.0678 31.633L19.9381 32.5033C20.4187 32.9837 20.4184 33.7634 19.9381 34.2436L18.1972 35.9839C17.0608 37.1201 15.3673 37.3572 13.9965 36.7041L9.06102 41.6397ZM18.6074 21.6523C17.4732 22.7867 15.7782 23.0271 14.4061 22.3733L12.1068 24.6726L17.3275 29.8929L19.6266 27.5938C18.9728 26.2218 19.2131 24.5268 20.3476 23.3925L21.2176 22.5224L19.4774 20.7823L18.6074 21.6523ZM8.6265 24.6727L7.75639 25.5427C7.27659 26.0225 7.27659 26.8032 7.75631 27.283L14.7169 34.2436C15.1967 34.7234 15.9773 34.7234 16.4571 34.2436L17.3277 33.3732L8.6265 24.6727ZM12.1068 35.1136L6.88637 29.8931L2.97052 33.809L8.191 39.0294L12.1068 35.1136ZM25.568 11.2115C26.0486 10.7309 26.8277 10.7309 27.3082 11.2115L30.7885 14.6917C31.269 15.1723 31.269 15.9513 30.7885 16.4319C30.308 16.9125 29.5288 16.9124 29.0484 16.4319L25.568 12.9516C25.0875 12.4711 25.0875 11.692 25.568 11.2115Z" fill="url(#paint0_linear)"/>
<defs>
<linearGradient id="paint0_linear" x1="48.5001" y1="46.25" x2="5.00006" y2="3.74995" gradientUnits="userSpaceOnUse">
<stop stop-color="#610084"/>
<stop offset="1" stop-color="#237CBC"/>
</linearGradient>
</defs>
</svg>
