<svg width="49" height="36" viewBox="0 0 49 36" fill="none" xmlns="http://www.w3.org/2000/svg">
<path d="M16.5401 17.5099C20.5369 17.5099 23.7964 15.0555 23.7964 12.0486C23.7964 9.04126 20.5466 6.58685 16.5401 6.58685C12.5336 6.58685 9.28379 9.04126 9.28379 12.0486C9.28379 15.0555 12.5433 17.5099 16.5401 17.5099ZM16.5401 8.52679C19.4502 8.52679 21.8562 10.1373 21.8562 12.0482C21.8562 13.9594 19.4211 15.5696 16.5401 15.5696C13.6588 15.5696 11.2237 13.9594 11.2237 12.0482C11.2237 10.1373 13.6588 8.5171 16.5401 8.5171V8.52679Z" fill="url(#paint0_linear)"/>
<path d="M47.3016 22.1375H32.983V12.0385C32.983 5.40323 25.6008 0 16.4917 0C7.38226 0 0 5.40323 0 12.0385V23.9708C0 30.0823 6.25712 35.1267 14.3186 35.8931H14.4836C15.1527 35.9516 15.8319 36 16.5207 36H47.3016C47.8372 36 48.2717 35.5654 48.2717 35.0299V23.1072C48.2717 22.572 47.8372 22.1375 47.3016 22.1375ZM16.5401 1.94962C24.5431 1.94962 31.0915 6.47994 31.0915 12.0486C31.0915 17.6168 24.5822 22.1471 16.5401 22.1471C8.49806 22.1471 1.98872 17.6168 1.98872 12.0482C1.98872 6.47994 8.5465 1.94962 16.5401 1.94962ZM31.0915 17.704V22.1375H25.4648C27.6611 21.1421 29.5772 19.619 31.0427 17.704H31.0915ZM46.3314 34.0597H44.3912V29.1509C44.3912 28.6157 43.9566 28.1808 43.4214 28.1808C42.8858 28.1808 42.4512 28.6153 42.4512 29.1509V34.0694H38.5707V31.4015C38.5707 30.8659 38.1361 30.4314 37.6005 30.4314C37.0649 30.4314 36.6304 30.8659 36.6304 31.4015V34.0694H32.7502V31.4015C32.7502 30.8659 32.3156 30.4314 31.78 30.4314C31.2444 30.4314 30.8099 30.8659 30.8099 31.4015V34.0694H26.9293V29.1509C26.9293 28.6157 26.4948 28.1808 25.9592 28.1808C25.424 28.1808 24.9891 28.6153 24.9891 29.1509V34.0694H21.2739V31.4015C21.2739 30.8659 20.839 30.4314 20.3037 30.4314C19.7682 30.4314 19.3336 30.8659 19.3336 31.4015V34.0694H16.5394C16.171 34.0694 15.8122 34.0694 15.453 34.0694V31.4015C15.453 30.8659 15.0185 30.4314 14.4829 30.4314C13.9473 30.4314 13.5128 30.8659 13.5128 31.4015V33.8366C6.96535 32.8664 2.03715 28.8115 2.03715 23.9611V17.704C4.8116 21.497 10.2733 24.0774 16.5886 24.0774H46.3314V34.0597Z" fill="url(#paint1_linear)"/>
<defs>
<linearGradient id="paint0_linear" x1="40.0714" y1="35.3572" x2="7.07142" y2="4.50003" gradientUnits="userSpaceOnUse">
<stop stop-color="#610084"/>
<stop offset="1" stop-color="#237CBC"/>
</linearGradient>
<linearGradient id="paint1_linear" x1="58.9286" y1="45.4286" x2="-1.71429" y2="-1.41355e-06" gradientUnits="userSpaceOnUse">
<stop stop-color="#610084"/>
<stop offset="1" stop-color="#237CBC"/>
</linearGradient>
</defs>
</svg>
