<svg width="23" height="19" viewBox="0 0 23 19" fill="none" xmlns="http://www.w3.org/2000/svg">
<path d="M22.6448 0.520172C22.3639 0.184699 21.9431 0 21.4598 0C21.1971 0 20.9188 0.0539705 20.6328 0.160712L1.16379 7.41725C0.13059 7.80224 -0.0085622 8.37998 0.000387049 8.6901C0.0093363 9.00022 0.181829 9.56939 1.23574 9.89681C1.24205 9.8987 1.24837 9.90058 1.25469 9.90229L5.29308 11.0307L7.47705 17.1285C7.77484 17.9598 8.44322 18.4762 9.22163 18.4762C9.71244 18.4762 10.1952 18.2754 10.6177 17.8957L13.1156 15.6501L16.7387 18.4985C16.739 18.4988 16.7395 18.499 16.7399 18.4994L16.7743 18.5264C16.7774 18.5288 16.7808 18.5314 16.7839 18.5338C17.1866 18.8388 17.6262 18.9998 18.0556 19H18.0558C18.8947 19 19.5628 18.3936 19.7574 17.4554L22.9473 2.07572C23.0754 1.4584 22.968 0.906018 22.6448 0.520172ZM6.64407 10.8164L14.4354 6.92998L9.58399 11.9633C9.5045 12.0457 9.44817 12.1466 9.42045 12.2564L8.48499 15.9562L6.64407 10.8164ZM9.70472 16.9277C9.67243 16.9567 9.63997 16.9825 9.6075 17.0063L10.4754 13.5742L12.0542 14.8155L9.70472 16.9277ZM21.6265 1.81444L18.4366 17.1943C18.4059 17.3415 18.3078 17.684 18.0556 17.684C17.931 17.684 17.7745 17.6177 17.6143 17.4972L13.5089 14.2696C13.5083 14.2691 13.5076 14.2686 13.5069 14.2682L11.0641 12.3476L18.0798 5.06877C18.3044 4.83575 18.3248 4.47886 18.1281 4.22289C17.9312 3.96691 17.5744 3.88639 17.2826 4.03202L5.74371 9.78784L1.65038 8.64435L21.1134 1.39004C21.2779 1.3287 21.3926 1.31585 21.4598 1.31585C21.5011 1.31585 21.5744 1.32065 21.6016 1.35337C21.6374 1.39604 21.683 1.5415 21.6265 1.81444Z" fill="black"/>
</svg>
