<svg width="639" height="709" viewBox="0 0 639 709" fill="none" xmlns="http://www.w3.org/2000/svg">
<rect width="639" height="709" rx="43" fill="url(#paint0_linear)"/>
<mask id="mask0" mask-type="alpha" maskUnits="userSpaceOnUse" x="0" y="0" width="639" height="709">
<rect width="639" height="709" rx="43" fill="url(#paint1_linear)"/>
</mask>
<g mask="url(#mask0)">
<g style="mix-blend-mode:color-dodge">
<path opacity="0.0244" d="M-0.174866 452.377C28.2964 452.377 51.3769 429.296 51.3769 400.825C51.3769 372.354 28.2964 349.273 -0.174866 349.273C-28.6461 349.273 -51.7266 372.354 -51.7266 400.825C-51.7266 429.296 -28.6461 452.377 -0.174866 452.377Z" stroke="#237CBC" stroke-width="0.4232" stroke-miterlimit="10"/>
<path opacity="0.0488" d="M-0.174911 475.761C41.2113 475.761 74.7615 442.211 74.7615 400.825C74.7615 359.439 41.2113 325.889 -0.174911 325.889C-41.5611 325.889 -75.1113 359.439 -75.1113 400.825C-75.1113 442.211 -41.5611 475.761 -0.174911 475.761Z" stroke="#237CBC" stroke-width="0.5597" stroke-miterlimit="10"/>
<path opacity="0.0732" d="M-0.174911 499.146C54.1263 499.146 98.1462 455.126 98.1462 400.825C98.1462 346.524 54.1263 302.504 -0.174911 302.504C-54.4761 302.504 -98.4959 346.524 -98.4959 400.825C-98.4959 455.126 -54.4761 499.146 -0.174911 499.146Z" stroke="#237CBC" stroke-width="0.6962" stroke-miterlimit="10"/>
<path opacity="0.0976" d="M-0.174904 522.531C67.0413 522.531 121.531 468.041 121.531 400.825C121.531 333.609 67.0413 279.12 -0.174904 279.12C-67.3911 279.12 -121.88 333.609 -121.88 400.825C-121.88 468.041 -67.3911 522.531 -0.174904 522.531Z" stroke="#237CBC" stroke-width="0.8326" stroke-miterlimit="10"/>
<path opacity="0.122" d="M-0.174866 545.915C79.9563 545.915 144.915 480.956 144.915 400.825C144.915 320.694 79.9563 255.735 -0.174866 255.735C-80.306 255.735 -145.265 320.694 -145.265 400.825C-145.265 480.956 -80.306 545.915 -0.174866 545.915Z" stroke="#237CBC" stroke-width="0.9691" stroke-miterlimit="10"/>
<path opacity="0.1463" d="M-0.174942 569.272C92.8558 569.272 168.272 493.856 168.272 400.825C168.272 307.794 92.8558 232.378 -0.174942 232.378C-93.2057 232.378 -168.622 307.794 -168.622 400.825C-168.622 493.856 -93.2057 569.272 -0.174942 569.272Z" stroke="#237CBC" stroke-width="1.1056" stroke-miterlimit="10"/>
<path opacity="0.1707" d="M-0.174957 592.657C105.771 592.657 191.657 506.771 191.657 400.825C191.657 294.879 105.771 208.993 -0.174957 208.993C-106.121 208.993 -192.007 294.879 -192.007 400.825C-192.007 506.771 -106.121 592.657 -0.174957 592.657Z" stroke="#237CBC" stroke-width="1.2421" stroke-miterlimit="10"/>
<path opacity="0.1951" d="M-0.17485 616.041C118.686 616.041 215.041 519.686 215.041 400.825C215.041 281.964 118.686 185.609 -0.17485 185.609C-119.036 185.609 -215.391 281.964 -215.391 400.825C-215.391 519.686 -119.036 616.041 -0.17485 616.041Z" stroke="#237CBC" stroke-width="1.3785" stroke-miterlimit="10"/>
<path opacity="0.2195" d="M-0.174911 639.426C131.601 639.426 238.426 532.601 238.426 400.825C238.426 269.049 131.601 162.224 -0.174911 162.224C-131.951 162.224 -238.776 269.049 -238.776 400.825C-238.776 532.601 -131.951 639.426 -0.174911 639.426Z" stroke="#237CBC" stroke-width="1.515" stroke-miterlimit="10"/>
<path opacity="0.2439" d="M-0.174896 662.811C144.516 662.811 261.811 545.516 261.811 400.825C261.811 256.135 144.516 138.84 -0.174896 138.84C-144.865 138.84 -262.16 256.135 -262.16 400.825C-262.16 545.516 -144.865 662.811 -0.174896 662.811Z" stroke="#237CBC" stroke-width="1.6515" stroke-miterlimit="10"/>
<path opacity="0.2683" d="M-0.174896 686.195C157.431 686.195 285.195 558.431 285.195 400.825C285.195 243.22 157.431 115.455 -0.174896 115.455C-157.78 115.455 -285.545 243.22 -285.545 400.825C-285.545 558.431 -157.78 686.195 -0.174896 686.195Z" stroke="#237CBC" stroke-width="1.788" stroke-miterlimit="10"/>
<path opacity="0.2927" d="M-0.174896 709.58C170.346 709.58 308.58 571.346 308.58 400.825C308.58 230.305 170.346 92.0703 -0.174896 92.0703C-170.695 92.0703 -308.93 230.305 -308.93 400.825C-308.93 571.346 -170.695 709.58 -0.174896 709.58Z" stroke="#237CBC" stroke-width="1.9245" stroke-miterlimit="10"/>
<path opacity="0.3171" d="M-0.174805 732.965C183.261 732.965 331.965 584.261 331.965 400.825C331.965 217.39 183.261 68.6858 -0.174805 68.6858C-183.61 68.6858 -332.314 217.39 -332.314 400.825C-332.314 584.261 -183.61 732.965 -0.174805 732.965Z" stroke="#237CBC" stroke-width="2.0609" stroke-miterlimit="10"/>
<path opacity="0.3415" d="M-0.174957 756.349C196.175 756.349 355.349 597.175 355.349 400.825C355.349 204.475 196.175 45.301 -0.174957 45.301C-196.525 45.301 -355.699 204.475 -355.699 400.825C-355.699 597.175 -196.525 756.349 -0.174957 756.349Z" stroke="#237CBC" stroke-width="2.1974" stroke-miterlimit="10"/>
<path opacity="0.3659" d="M-0.174866 779.734C209.091 779.734 378.734 610.091 378.734 400.825C378.734 191.56 209.091 21.9165 -0.174866 21.9165C-209.44 21.9165 -379.083 191.56 -379.083 400.825C-379.083 610.091 -209.44 779.734 -0.174866 779.734Z" stroke="#237CBC" stroke-width="2.3339" stroke-miterlimit="10"/>
<path opacity="0.3902" d="M-0.174774 803.118C222.006 803.118 402.118 623.006 402.118 400.825C402.118 178.645 222.006 -1.46802 -0.174774 -1.46802C-222.355 -1.46802 -402.468 178.645 -402.468 400.825C-402.468 623.006 -222.355 803.118 -0.174774 803.118Z" stroke="#237CBC" stroke-width="2.4704" stroke-miterlimit="10"/>
<path opacity="0.4146" d="M-0.174774 826.475C234.905 826.475 425.475 635.905 425.475 400.825C425.475 165.745 234.905 -24.825 -0.174774 -24.825C-235.255 -24.825 -425.825 165.745 -425.825 400.825C-425.825 635.905 -235.255 826.475 -0.174774 826.475Z" stroke="#237CBC" stroke-width="2.6068" stroke-miterlimit="10"/>
<path opacity="0.439" d="M-0.174866 849.86C247.82 849.86 448.86 648.82 448.86 400.825C448.86 152.83 247.82 -48.2095 -0.174866 -48.2095C-248.17 -48.2095 -449.209 152.83 -449.209 400.825C-449.209 648.82 -248.17 849.86 -0.174866 849.86Z" stroke="#237CBC" stroke-width="2.7433" stroke-miterlimit="10"/>
<path opacity="0.4634" d="M-0.174866 873.244C260.735 873.244 472.244 661.735 472.244 400.825C472.244 139.915 260.735 -71.5942 -0.174866 -71.5942C-261.085 -71.5942 -472.594 139.915 -472.594 400.825C-472.594 661.735 -261.085 873.244 -0.174866 873.244Z" stroke="#237CBC" stroke-width="2.8798" stroke-miterlimit="10"/>
<path opacity="0.4878" d="M-0.174835 896.629C273.65 896.629 495.629 674.65 495.629 400.825C495.629 127 273.65 -94.9788 -0.174835 -94.9788C-274 -94.9788 -495.979 127 -495.979 400.825C-495.979 674.65 -274 896.629 -0.174835 896.629Z" stroke="#237CBC" stroke-width="3.0163" stroke-miterlimit="10"/>
<path opacity="0.5122" d="M-0.174896 920.014C286.565 920.014 519.014 687.565 519.014 400.825C519.014 114.085 286.565 -118.363 -0.174896 -118.363C-286.915 -118.363 -519.363 114.085 -519.363 400.825C-519.363 687.565 -286.915 920.014 -0.174896 920.014Z" stroke="#237CBC" stroke-width="3.1528" stroke-miterlimit="10"/>
<path opacity="0.5366" d="M-0.174774 943.398C299.48 943.398 542.398 700.48 542.398 400.825C542.398 101.17 299.48 -141.748 -0.174774 -141.748C-299.83 -141.748 -542.748 101.17 -542.748 400.825C-542.748 700.48 -299.83 943.398 -0.174774 943.398Z" stroke="#237CBC" stroke-width="3.2892" stroke-miterlimit="10"/>
<path opacity="0.561" d="M-0.174896 966.783C312.395 966.783 565.783 713.395 565.783 400.825C565.783 88.2553 312.395 -165.133 -0.174896 -165.133C-312.745 -165.133 -566.133 88.2553 -566.133 400.825C-566.133 713.395 -312.745 966.783 -0.174896 966.783Z" stroke="#237CBC" stroke-width="3.4257" stroke-miterlimit="10"/>
<path opacity="0.5854" d="M-0.174927 990.167C325.31 990.167 589.167 726.31 589.167 400.825C589.167 75.3405 325.31 -188.517 -0.174927 -188.517C-325.66 -188.517 -589.517 75.3405 -589.517 400.825C-589.517 726.31 -325.66 990.167 -0.174927 990.167Z" stroke="#237CBC" stroke-width="3.5622" stroke-miterlimit="10"/>
<path opacity="0.6098" d="M-0.174988 1013.55C338.225 1013.55 612.552 739.225 612.552 400.825C612.552 62.4253 338.225 -211.902 -0.174988 -211.902C-338.575 -211.902 -612.902 62.4253 -612.902 400.825C-612.902 739.225 -338.575 1013.55 -0.174988 1013.55Z" stroke="#237CBC" stroke-width="3.6987" stroke-miterlimit="10"/>
<path opacity="0.6341" d="M-0.174866 1036.94C351.14 1036.94 635.937 752.14 635.937 400.825C635.937 49.5104 351.14 -235.286 -0.174866 -235.286C-351.49 -235.286 -636.286 49.5104 -636.286 400.825C-636.286 752.14 -351.49 1036.94 -0.174866 1036.94Z" stroke="#237CBC" stroke-width="3.8352" stroke-miterlimit="10"/>
<path opacity="0.6585" d="M-0.174927 1060.29C364.039 1060.29 659.293 765.039 659.293 400.825C659.293 36.6107 364.039 -258.643 -0.174927 -258.643C-364.389 -258.643 -659.643 36.6107 -659.643 400.825C-659.643 765.039 -364.389 1060.29 -0.174927 1060.29Z" stroke="#237CBC" stroke-width="3.9716" stroke-miterlimit="10"/>
<path opacity="0.6829" d="M-0.174927 1083.68C376.954 1083.68 682.678 777.954 682.678 400.825C682.678 23.6958 376.954 -282.028 -0.174927 -282.028C-377.304 -282.028 -683.028 23.6958 -683.028 400.825C-683.028 777.954 -377.304 1083.68 -0.174927 1083.68Z" stroke="#237CBC" stroke-width="4.1081" stroke-miterlimit="10"/>
<path opacity="0.7073" d="M-0.174988 1107.06C389.869 1107.06 706.063 790.869 706.063 400.825C706.063 10.7807 389.869 -305.413 -0.174988 -305.413C-390.219 -305.413 -706.412 10.7807 -706.412 400.825C-706.412 790.869 -390.219 1107.06 -0.174988 1107.06Z" stroke="#237CBC" stroke-width="4.2446" stroke-miterlimit="10"/>
<path opacity="0.7317" d="M-0.174744 1130.45C402.785 1130.45 729.448 803.785 729.448 400.825C729.448 -2.13412 402.785 -328.797 -0.174744 -328.797C-403.134 -328.797 -729.797 -2.13412 -729.797 400.825C-729.797 803.785 -403.134 1130.45 -0.174744 1130.45Z" stroke="#237CBC" stroke-width="4.3811" stroke-miterlimit="10"/>
<path opacity="0.7561" d="M-0.174927 1153.83C415.699 1153.83 752.832 816.699 752.832 400.825C752.832 -15.0491 415.699 -352.182 -0.174927 -352.182C-416.049 -352.182 -753.182 -15.0491 -753.182 400.825C-753.182 816.699 -416.049 1153.83 -0.174927 1153.83Z" stroke="#237CBC" stroke-width="4.5175" stroke-miterlimit="10"/>
<path opacity="0.7805" d="M-0.174927 1177.22C428.614 1177.22 776.216 829.614 776.216 400.825C776.216 -27.9639 428.614 -375.566 -0.174927 -375.566C-428.964 -375.566 -776.566 -27.9639 -776.566 400.825C-776.566 829.614 -428.964 1177.22 -0.174927 1177.22Z" stroke="#237CBC" stroke-width="4.654" stroke-miterlimit="10"/>
<path opacity="0.8049" d="M-0.174866 1200.6C441.529 1200.6 799.601 842.529 799.601 400.825C799.601 -40.879 441.529 -398.951 -0.174866 -398.951C-441.879 -398.951 -799.951 -40.879 -799.951 400.825C-799.951 842.529 -441.879 1200.6 -0.174866 1200.6Z" stroke="#237CBC" stroke-width="4.7905" stroke-miterlimit="10"/>
<path opacity="0.8293" d="M-0.174927 1223.99C454.444 1223.99 822.986 855.444 822.986 400.825C822.986 -53.7939 454.444 -422.335 -0.174927 -422.335C-454.794 -422.335 -823.336 -53.7939 -823.336 400.825C-823.336 855.444 -454.794 1223.99 -0.174927 1223.99Z" stroke="#237CBC" stroke-width="4.927" stroke-miterlimit="10"/>
<path opacity="0.8537" d="M-0.174744 1247.37C467.359 1247.37 846.37 868.359 846.37 400.825C846.37 -66.7089 467.359 -445.72 -0.174744 -445.72C-467.709 -445.72 -846.72 -66.7089 -846.72 400.825C-846.72 868.359 -467.709 1247.37 -0.174744 1247.37Z" stroke="#237CBC" stroke-width="5.0635" stroke-miterlimit="10"/>
<path opacity="0.878" d="M-0.174866 1270.76C480.274 1270.76 869.755 881.274 869.755 400.825C869.755 -79.6239 480.274 -469.105 -0.174866 -469.105C-480.624 -469.105 -870.105 -79.6239 -870.105 400.825C-870.105 881.274 -480.624 1270.76 -0.174866 1270.76Z" stroke="#237CBC" stroke-width="5.1999" stroke-miterlimit="10"/>
<path opacity="0.9024" d="M-0.174744 1294.11C493.174 1294.11 893.112 894.174 893.112 400.825C893.112 -92.5234 493.174 -492.461 -0.174744 -492.461C-493.523 -492.461 -893.462 -92.5234 -893.462 400.825C-893.462 894.174 -493.523 1294.11 -0.174744 1294.11Z" stroke="#237CBC" stroke-width="5.3364" stroke-miterlimit="10"/>
<path opacity="0.9268" d="M-0.174866 1317.5C506.089 1317.5 916.497 907.089 916.497 400.825C916.497 -105.439 506.089 -515.846 -0.174866 -515.846C-506.438 -515.846 -916.846 -105.439 -916.846 400.825C-916.846 907.089 -506.438 1317.5 -0.174866 1317.5Z" stroke="#237CBC" stroke-width="5.4729" stroke-miterlimit="10"/>
<path opacity="0.9512" d="M-0.174866 1340.88C519.004 1340.88 939.881 920.004 939.881 400.825C939.881 -118.353 519.004 -539.231 -0.174866 -539.231C-519.353 -539.231 -940.231 -118.353 -940.231 400.825C-940.231 920.004 -519.353 1340.88 -0.174866 1340.88Z" stroke="#237CBC" stroke-width="5.6094" stroke-miterlimit="10"/>
<path opacity="0.9756" d="M-0.174744 1364.27C531.919 1364.27 963.266 932.919 963.266 400.825C963.266 -131.268 531.919 -562.615 -0.174744 -562.615C-532.268 -562.615 -963.615 -131.268 -963.615 400.825C-963.615 932.919 -532.268 1364.27 -0.174744 1364.27Z" stroke="#237CBC" stroke-width="5.7459" stroke-miterlimit="10"/>
<path d="M-0.174927 1387.65C544.833 1387.65 986.65 945.833 986.65 400.825C986.65 -144.183 544.833 -586 -0.174927 -586C-545.183 -586 -987 -144.183 -987 400.825C-987 945.833 -545.183 1387.65 -0.174927 1387.65Z" stroke="#237CBC" stroke-width="5.8823" stroke-miterlimit="10"/>
</g>
</g>
<defs>
<linearGradient id="paint0_linear" x1="22.8613" y1="22.5994" x2="442.971" y2="707.919" gradientUnits="userSpaceOnUse">
<stop stop-color="#237CBC"/>
<stop offset="1" stop-color="#610084"/>
</linearGradient>
<linearGradient id="paint1_linear" x1="22.8613" y1="22.5994" x2="442.971" y2="707.919" gradientUnits="userSpaceOnUse">
<stop stop-color="#237CBC"/>
<stop offset="1" stop-color="#610084"/>
</linearGradient>
</defs>
</svg>
